<svg xmlns="http://www.w3.org/2000/svg" width="266.011" height="33.612" viewBox="0 0 266.011 33.612">
  <g id="グループ_339" data-name="グループ 339" transform="translate(13.735 -125.39)">
    <path id="パス_1" data-name="パス 1" d="M243.632,140.872a4.785,4.785,0,0,0,3.108-.741,3.009,3.009,0,0,0,.828-2.353,2.526,2.526,0,0,0-.856-2.211,5.478,5.478,0,0,0-3-.6H240.38v5.9Zm8.471-3.107q0,4.791-3.794,6.188l5.049,7.131h-5.476l-4.422-6.361H240.38v6.361h-4.448V131.148h7.558q4.65,0,6.631,1.569T252.1,137.765Zm-20.449-6.618v3.964h-9.925v4.108h8.926v3.793h-8.926v4.137h10.238v3.935H217.278V131.148Zm-23.729,7.388-5.392,10.894h-2.652l-5.363-10.894v12.549H190.07V131.148h6.017L201.22,142.1l5.164-10.952h5.989v19.936h-4.448Zm-24.643,9.8a10.864,10.864,0,0,1-14.889,0,10.433,10.433,0,0,1,0-14.688,10.86,10.86,0,0,1,14.889,0,10.433,10.433,0,0,1,0,14.688ZM181.77,141a6.521,6.521,0,0,0-1.713-4.549,5.641,5.641,0,0,0-8.413,0,6.88,6.88,0,0,0,0,9.084,5.67,5.67,0,0,0,8.413,0A6.468,6.468,0,0,0,181.77,141Zm-23.616-6v16.087H153.7V135h-5.646v-3.849H163.8V135Zm-20.051-.4a2.685,2.685,0,0,0-1.755.527,1.721,1.721,0,0,0-.642,1.4,1.58,1.58,0,0,0,.784,1.383,14.3,14.3,0,0,0,3.623,1.213,10.2,10.2,0,0,1,4.407,2.1,5.177,5.177,0,0,1,1.567,4.079,5.382,5.382,0,0,1-2.009,4.349,8.016,8.016,0,0,1-5.292,1.669,12.246,12.246,0,0,1-8.528-3.508l2.652-3.252q3.223,2.824,5.961,2.824a3.136,3.136,0,0,0,1.925-.526,1.7,1.7,0,0,0,.7-1.428,1.661,1.661,0,0,0-.741-1.425,9.648,9.648,0,0,0-2.939-1.071,12.8,12.8,0,0,1-5.09-2.153,5.086,5.086,0,0,1-1.612-4.165,5.163,5.163,0,0,1,2.039-4.378,8.205,8.205,0,0,1,5.091-1.541,12.254,12.254,0,0,1,3.993.686,10.679,10.679,0,0,1,3.479,1.939l-2.253,3.251A8.775,8.775,0,0,0,138.1,134.6Zm-22.56,11.337a3.643,3.643,0,0,0,2.994,1.383,3.606,3.606,0,0,0,2.981-1.383,5.92,5.92,0,0,0,1.1-3.78V131.148h4.449V142.3a8.857,8.857,0,0,1-2.4,6.659,9.249,9.249,0,0,1-12.278-.015,8.832,8.832,0,0,1-2.41-6.644V131.148h4.448v11.009A5.864,5.864,0,0,0,115.544,145.936Zm-17,1.213a6.562,6.562,0,0,0,5.361-2.6l2.853,2.939a10.76,10.76,0,0,1-15.587.912,10.538,10.538,0,0,1,.057-14.746,10.237,10.237,0,0,1,7.43-2.966,10.529,10.529,0,0,1,8.214,3.737l-2.766,3.138a6.485,6.485,0,0,0-5.248-2.625,6.114,6.114,0,0,0-4.292,1.64A5.717,5.717,0,0,0,92.783,141a6.029,6.029,0,0,0,1.682,4.462A5.551,5.551,0,0,0,98.544,147.149Zm-13.433-16v3.964H75.186v4.108h8.926v3.793H75.186v4.137H85.425v3.935H70.735V131.148ZM57.7,140.872a4.782,4.782,0,0,0,3.108-.741,3.009,3.009,0,0,0,.828-2.353,2.522,2.522,0,0,0-.856-2.211,5.478,5.478,0,0,0-3-.6H54.45v5.9Zm8.471-3.107q0,4.791-3.793,6.188l5.048,7.131H61.951l-4.422-6.361H54.45v6.361H50V131.148h7.558q4.65,0,6.632,1.569T66.172,137.765Z" transform="translate(-1.082 1.195)" fill="#fff"/>
    <g id="グループ_340" data-name="グループ 340" transform="translate(-106 38)">
      <path id="パス_3" data-name="パス 3" d="M132.846,107.5l2.187-9.333-9.334,2.187L127.353,102l-10.237,10.238a11.376,11.376,0,1,1-1.011-16.987l2.942-2.941c.307-.308.626-.6.953-.884a16.806,16.806,0,1,0,.954,24.651l10.237-10.239Z" fill="#7159b6" fill-rule="evenodd"/>
      <path id="パス_4" data-name="パス 4" d="M107.154,100.9l-2.187,9.333,9.334-2.188-1.655-1.654,10.239-10.238a11.375,11.375,0,1,1,1.009,16.987l-2.94,2.942q-.462.46-.954.882a16.806,16.806,0,1,0-.953-24.649l-10.238,10.238Z" fill="#3d7af2" fill-rule="evenodd"/>
    </g>
  </g>
</svg>
